<svg xmlns="http://www.w3.org/2000/svg" fill="none" viewBox="0 0 99 23"><path fill="#1a1a2e" fill-rule="evenodd" d="M20.5721 2.33411L6.8221 6.45911L2.23877 20.6674L16.4471 16.5424L20.5721 2.33411ZM11.4052 13.7922C12.6709 13.7922 13.6969 12.7662 13.6969 11.5006C13.6969 10.2349 12.6709 9.2089 11.4052 9.2089C10.1396 9.2089 9.11354 10.2349 9.11354 11.5006C9.11354 12.7662 10.1396 13.7922 11.4052 13.7922Z" clip-rule="evenodd"/><path fill="#1a1a2e" d="M80.2848 12.707V19.1726H83.4802V12.0081C83.4802 9.11227 82.6064 6.86554 79.1365 6.86554C77.389 6.86554 76.1658 7.63941 75.5168 8.91256H75.4419L75.4668 7.09021H72.2715V19.1726H75.4668V13.1564C75.4668 11.1343 76.1409 9.48672 78.113 9.48672C79.9603 9.48672 80.2848 10.9097 80.2848 12.707Z"/><path fill="#1a1a2e" d="M66.415 17.7747L66.4649 19.1726H69.5355V12.2577C69.5355 10.2107 69.0861 9.11227 68.2124 8.2635C67.3137 7.41474 66.0905 6.86554 63.9436 6.86554C61.8467 6.86554 60.1491 7.58949 59.2255 8.13869L60.1991 10.1857C60.7233 9.78629 62.0464 9.18716 63.644 9.18716C65.3166 9.18716 66.3401 9.91111 66.3401 11.4589V11.7834L63.4443 11.9831C60.948 12.1578 58.4766 13.1314 58.4766 15.6527C58.4766 18.1741 60.3738 19.4472 62.7204 19.4472C64.5178 19.4472 65.9157 18.6484 66.415 17.7747ZM64.1932 13.8554L66.3651 13.7305V15.9523C65.9407 16.5514 65.017 17.2754 63.7689 17.2754C62.4458 17.2754 61.6719 16.5764 61.6719 15.5529C61.6719 14.5294 62.4957 13.9552 64.1932 13.8554Z"/><path fill="#1a1a2e" d="M41.9788 14.1549H50.8659C50.8659 14.1549 50.9158 13.1564 50.9158 12.5323C50.9158 9.31198 48.6691 6.86554 44.9495 6.86554C41.5045 6.86554 38.6836 9.46176 38.6836 13.3311C38.6836 17.2255 41.3797 19.4472 45.0244 19.4472C47.9701 19.4472 49.7924 18.199 50.4664 17.5001L49.2183 15.7776C48.6441 16.2768 47.1962 17.0008 45.5736 17.0008C43.7512 17.0008 42.2784 16.0771 41.9788 14.1549ZM44.9245 9.23709C47.1712 9.23709 47.6705 10.7599 47.7204 12.0829H41.9289C42.0287 10.5602 43.0273 9.23709 44.9245 9.23709Z"/><path fill="#1a1a2e" d="M31.7384 3.55707V16.4751H37.7546V19.1711H28.5181V3.55707L31.7384 3.55707Z"/><path fill="#1a1a2e" d="M56.332 3.55707V19.1711H53.1616V3.55707L56.332 3.55707Z"/><path fill="#1a1a2e" fill-rule="evenodd" d="M98.5944 3.55707V19.1711H95.5738L95.5488 17.2739H95.4739C94.5003 18.8216 93.0025 19.4457 91.3299 19.4457C87.7851 19.4457 85.6133 16.6997 85.6133 13.105C85.6133 9.68494 87.885 6.86405 91.5546 6.86405C93.1773 6.86405 94.5503 7.46318 95.399 8.76129H95.449C95.424 8.21209 95.424 7.56303 95.424 6.71427V3.55707L98.5944 3.55707ZM88.8586 13.105C88.8586 15.2019 90.1567 16.8495 92.2286 16.8495C94.1508 16.8495 95.4989 15.3767 95.4989 13.105C95.4989 11.0829 94.1758 9.31049 92.1288 9.31049C90.0568 9.31049 88.8586 11.0829 88.8586 13.105Z" clip-rule="evenodd"/></svg>